<?xml version="1.0" encoding="utf-8"?>
<!-- Generator: Adobe Illustrator 24.1.2, SVG Export Plug-In . SVG Version: 6.00 Build 0)  -->
<svg version="1.1" id="Capa_1" xmlns="http://www.w3.org/2000/svg" xmlns:xlink="http://www.w3.org/1999/xlink" x="0px" y="0px"
	 viewBox="0 0 50 50" style="enable-background:new 0 0 50 50;" xml:space="preserve">
<style type="text/css">
	.st0{fill:#B3F1FF;}
	.st1{fill:#FF7B79;}
	.st2{fill:#FFDA8F;}
	.st3{fill:#D8EC84;}
</style>
<g>
	<g>
		<path class="st0" d="M46.1,10.1c1.6,0,2.9,1.3,2.9,2.9s-1.3,2.9-2.9,2.9c-0.3,0-0.7-0.1-1-0.2v5.4h-5.4c0.1,0.3,0.2,0.6,0.2,1
			c0,1.6-1.3,2.9-2.9,2.9s-2.9-1.3-2.9-2.9c0-0.3,0.1-0.7,0.2-1h-5.4v-5.4c0.3,0.1,0.6,0.2,1,0.2c1.6,0,2.9-1.3,2.9-2.9
			s-1.3-2.9-2.9-2.9c-0.3,0-0.7,0.1-1,0.2V4.9h16.2v5.4C45.4,10.1,45.7,10.1,46.1,10.1z"/>
		<path class="st1" d="M45.1,28.9v16.2h-5.4c0.1,0.3,0.2,0.6,0.2,1c0,1.6-1.3,2.9-2.9,2.9s-2.9-1.3-2.9-2.9c0-0.3,0.1-0.7,0.2-1
			h-5.4v-5.4c-0.3,0.1-0.6,0.2-1,0.2c-1.6,0-2.9-1.3-2.9-2.9c0-1.6,1.3-2.9,2.9-2.9c0.3,0,0.7,0.1,1,0.2v-5.4h5.4
			c-0.1,0.3-0.2,0.6-0.2,1c0,1.6,1.3,2.9,2.9,2.9s2.9-1.3,2.9-2.9c0-0.3-0.1-0.7-0.2-1H45.1z"/>
		<path class="st2" d="M22.1,10.1c1.6,0,2.9,1.3,2.9,2.9s-1.3,2.9-2.9,2.9c-0.3,0-0.7-0.1-1-0.2v5.4h-5.4c0.1-0.3,0.2-0.6,0.2-1
			c0-1.6-1.3-2.9-2.9-2.9s-2.9,1.3-2.9,2.9c0,0.3,0.1,0.7,0.2,1H4.9V4.9h5.4c-0.1-0.3-0.2-0.6-0.2-1C10.1,2.3,11.4,1,13,1
			s2.9,1.3,2.9,2.9c0,0.3-0.1,0.7-0.2,1h5.4v5.4C21.4,10.1,21.7,10.1,22.1,10.1z"/>
		<path class="st3" d="M21.1,39.8v5.4H4.9v-5.4c-0.3,0.1-0.6,0.2-1,0.2C2.3,39.9,1,38.6,1,37c0-1.6,1.3-2.9,2.9-2.9
			c0.3,0,0.7,0.1,1,0.2v-5.4h5.4c-0.1-0.3-0.2-0.6-0.2-1c0-1.6,1.3-2.9,2.9-2.9s2.9,1.3,2.9,2.9c0,0.3-0.1,0.7-0.2,1h5.4v5.4
			c-0.3-0.1-0.6-0.2-1-0.2c-1.6,0-2.9,1.3-2.9,2.9c0,1.6,1.3,2.9,2.9,2.9C20.5,39.9,20.8,39.9,21.1,39.8z"/>
	</g>
	<g>
		<path d="M3.9,33.1C1.8,33.1,0,34.9,0,37c0,2.2,1.8,3.9,3.9,3.9v4.2c0,0.5,0.4,1,1,1h16.2c0.5,0,1-0.4,1-1v-5.4
			c0-0.3-0.2-0.6-0.4-0.8c-0.3-0.2-0.6-0.2-0.9-0.1c-0.2,0.1-0.4,0.1-0.6,0.1c-1.1,0-2-0.9-2-2c0-1.1,0.9-2,2-2c0.2,0,0.4,0,0.6,0.1
			c0.3,0.1,0.6,0.1,0.9-0.1c0.3-0.2,0.4-0.5,0.4-0.8v-5.4c0-0.5-0.4-1-1-1h-4.2c0-2.2-1.8-3.9-3.9-3.9s-3.9,1.8-3.9,3.9H4.9
			c-0.5,0-1,0.4-1,1V33.1z M4.6,35.2c0.3,0.1,0.6,0.1,0.9-0.1c0.3-0.2,0.4-0.5,0.4-0.8v-4.4h4.4c0.3,0,0.6-0.2,0.8-0.4
			c0.2-0.3,0.2-0.6,0.1-0.9c-0.1-0.2-0.1-0.4-0.1-0.6c0-1.1,0.9-2,2-2s2,0.9,2,2c0,0.2,0,0.4-0.1,0.6c-0.1,0.3-0.1,0.6,0.1,0.9
			c0.2,0.3,0.5,0.4,0.8,0.4h4.4v3.2c-2.2,0-3.9,1.8-3.9,3.9c0,2.2,1.8,3.9,3.9,3.9v3.2H5.9v-4.4c0-0.3-0.2-0.6-0.4-0.8
			c-0.3-0.2-0.6-0.2-0.9-0.1C4.3,38.9,4.1,39,3.9,39c-1.1,0-2-0.9-2-2c0-1.1,0.9-2,2-2C4.1,35.1,4.3,35.1,4.6,35.2z"/>
		<path d="M46.1,9.1V4.9c0-0.5-0.4-1-1-1H28.9c-0.5,0-1,0.4-1,1v5.4c0,0.3,0.2,0.6,0.4,0.8c0.3,0.2,0.6,0.2,0.9,0.1
			c0.2-0.1,0.4-0.1,0.6-0.1c1.1,0,2,0.9,2,2s-0.9,2-2,2c-0.2,0-0.4,0-0.6-0.1c-0.3-0.1-0.6-0.1-0.9,0.1c-0.3,0.2-0.4,0.5-0.4,0.8
			v5.4c0,0.5,0.4,1,1,1h4.2c0,2.2,1.8,3.9,3.9,3.9s3.9-1.8,3.9-3.9h4.2c0.5,0,1-0.4,1-1v-4.2c2.2,0,3.9-1.8,3.9-3.9
			S48.2,9.1,46.1,9.1z M46.1,14.9c-0.2,0-0.4,0-0.6-0.1c-0.3-0.1-0.6-0.1-0.9,0.1c-0.3,0.2-0.4,0.5-0.4,0.8v4.4h-4.4
			c-0.3,0-0.6,0.2-0.8,0.4c-0.2,0.3-0.2,0.6-0.1,0.9c0.1,0.2,0.1,0.4,0.1,0.6c0,1.1-0.9,2-2,2s-2-0.9-2-2c0-0.2,0-0.4,0.1-0.6
			c0.1-0.3,0.1-0.6-0.1-0.9c-0.2-0.3-0.5-0.4-0.8-0.4h-4.4v-3.2c2.2,0,3.9-1.8,3.9-3.9S32,9.1,29.9,9.1V5.9h14.3v4.4
			c0,0.3,0.2,0.6,0.4,0.8c0.3,0.2,0.6,0.2,0.9,0.1c0.2-0.1,0.4-0.1,0.6-0.1c1.1,0,2,0.9,2,2S47.2,14.9,46.1,14.9z"/>
		<path d="M21.1,3.9h-4.2C16.9,1.8,15.1,0,13,0S9.1,1.8,9.1,3.9H4.9c-0.5,0-1,0.4-1,1v16.2c0,0.5,0.4,1,1,1h5.4
			c0.3,0,0.6-0.2,0.8-0.4c0.2-0.3,0.2-0.6,0.1-0.9c-0.1-0.2-0.1-0.4-0.1-0.6c0-1.1,0.9-2,2-2s2,0.9,2,2c0,0.2,0,0.4-0.1,0.6
			c-0.1,0.3-0.1,0.6,0.1,0.9c0.2,0.3,0.5,0.4,0.8,0.4h5.4c0.5,0,1-0.4,1-1v-4.2c2.2,0,3.9-1.8,3.9-3.9s-1.8-3.9-3.9-3.9V4.9
			C22.1,4.3,21.6,3.9,21.1,3.9z M24,13c0,1.1-0.9,2-2,2c-0.2,0-0.4,0-0.6-0.1c-0.3-0.1-0.6-0.1-0.9,0.1c-0.3,0.2-0.4,0.5-0.4,0.8
			v4.4h-3.2c0-2.2-1.8-3.9-3.9-3.9S9.1,18,9.1,20.1H5.9V5.9h4.4c0.3,0,0.6-0.2,0.8-0.4c0.2-0.3,0.2-0.6,0.1-0.9
			C11.1,4.3,11,4.1,11,3.9c0-1.1,0.9-2,2-2s2,0.9,2,2c0,0.2,0,0.4-0.1,0.6c-0.1,0.3-0.1,0.6,0.1,0.9c0.2,0.3,0.5,0.4,0.8,0.4h4.4
			v4.4c0,0.3,0.2,0.6,0.4,0.8c0.3,0.2,0.6,0.2,0.9,0.1c0.2-0.1,0.4-0.1,0.6-0.1C23.1,11,24,11.9,24,13z"/>
		<circle cx="45.1" cy="37" r="1"/>
		<path d="M35.1,28.3c-0.2-0.3-0.5-0.4-0.8-0.4h-5.4c-0.5,0-1,0.4-1,1v4.2c-2.2,0-3.9,1.8-3.9,3.9c0,2.2,1.8,3.9,3.9,3.9v4.2
			c0,0.5,0.4,1,1,1h4.2c0,2.2,1.8,3.9,3.9,3.9s3.9-1.8,3.9-3.9h4.2c0.5,0,1-0.4,1-1v-3.7c0-0.5-0.4-1-1-1s-1,0.4-1,1v2.7h-4.4
			c-0.3,0-0.6,0.2-0.8,0.4c-0.2,0.3-0.2,0.6-0.1,0.9c0.1,0.2,0.1,0.4,0.1,0.6c0,1.1-0.9,2-2,2s-2-0.9-2-2c0-0.2,0-0.4,0.1-0.6
			c0.1-0.3,0.1-0.6-0.1-0.9c-0.2-0.3-0.5-0.4-0.8-0.4h-4.4v-4.4c0-0.3-0.2-0.6-0.4-0.8c-0.3-0.2-0.6-0.2-0.9-0.1
			c-0.2,0.1-0.4,0.1-0.6,0.1c-1.1,0-2-0.9-2-2c0-1.1,0.9-2,2-2c0.2,0,0.4,0,0.6,0.1c0.3,0.1,0.6,0.1,0.9-0.1
			c0.3-0.2,0.4-0.5,0.4-0.8v-4.4h3.2c0,2.2,1.8,3.9,3.9,3.9s3.9-1.8,3.9-3.9h3.2v2.7c0,0.5,0.4,1,1,1s1-0.4,1-1v-3.7
			c0-0.5-0.4-1-1-1h-5.4c-0.3,0-0.6,0.2-0.8,0.4c-0.2,0.3-0.2,0.6-0.1,0.9c0.1,0.2,0.1,0.4,0.1,0.6c0,1.1-0.9,2-2,2s-2-0.9-2-2
			c0-0.2,0-0.4,0.1-0.6C35.3,28.9,35.2,28.6,35.1,28.3z"/>
	</g>
</g>
</svg>
