<?xml version="1.0" encoding="utf-8"?>
<!-- Generator: Adobe Illustrator 24.1.2, SVG Export Plug-In . SVG Version: 6.00 Build 0)  -->
<svg version="1.1" id="Слой_1" xmlns="http://www.w3.org/2000/svg" xmlns:xlink="http://www.w3.org/1999/xlink" x="0px" y="0px"
	 viewBox="0 0 50 50" style="enable-background:new 0 0 50 50;" xml:space="preserve">
<g>
	<path d="M46,12.2c0.4,0,0.8-0.4,0.8-0.8V8h2.4C49.6,8,50,7.6,50,7.2V0.8C50,0.4,49.6,0,49.2,0h-6.4C42.4,0,42,0.4,42,0.8v2.4H8V0.8
		C8,0.4,7.6,0,7.2,0H0.8C0.4,0,0,0.4,0,0.8v6.4C0,7.6,0.4,8,0.8,8h2.4v34H0.8C0.4,42,0,42.4,0,42.8v6.4C0,49.6,0.4,50,0.8,50h6.4
		C7.6,50,8,49.6,8,49.2v-2.4h34v2.4c0,0.4,0.4,0.8,0.8,0.8h6.4c0.4,0,0.8-0.4,0.8-0.8v-6.4c0-0.4-0.4-0.8-0.8-0.8h-2.4V14.6
		c0-0.4-0.4-0.8-0.8-0.8c-0.4,0-0.8,0.4-0.8,0.8V42h-2.4c-0.4,0-0.8,0.4-0.8,0.8v2.4H8v-2.4C8,42.4,7.6,42,7.2,42H4.8V8h2.4
		C7.6,8,8,7.6,8,7.2V4.8h34v2.4C42,7.6,42.4,8,42.8,8h2.4v3.5C45.2,11.9,45.6,12.2,46,12.2z M43.6,43.6h4.8v4.8h-4.8V43.6z
		 M6.4,48.4H1.6v-4.8h4.8V48.4z M6.4,6.4H1.6V1.6h4.8V6.4z M43.6,1.6h4.8v4.8h-4.8V1.6z"/>
	<path d="M39.4,11.4c0-0.4-0.4-0.8-0.8-0.8H11.4c-0.4,0-0.8,0.4-0.8,0.8V25c0,0.4,0.4,0.8,0.8,0.8h27.1c0.4,0,0.8-0.4,0.8-0.8V11.4z
		 M12.2,12.7l11,5.5l-11,5.5V12.7z M14.8,12.2h20.4L25,17.3L14.8,12.2z M25,19.1l10.2,5.1H14.8L25,19.1z M26.8,18.2l11-5.5v11
		L26.8,18.2z"/>
	<path d="M23.4,37.8h-12c-0.4,0-0.8,0.4-0.8,0.8s0.4,0.8,0.8,0.8h12c0.4,0,0.8-0.4,0.8-0.8S23.8,37.8,23.4,37.8z"/>
	<path d="M38.6,37.8h-12c-0.4,0-0.8,0.4-0.8,0.8s0.4,0.8,0.8,0.8h12c0.4,0,0.8-0.4,0.8-0.8S39,37.8,38.6,37.8z"/>
	<path d="M23.4,34.4h-12c-0.4,0-0.8,0.4-0.8,0.8S11,36,11.4,36h12c0.4,0,0.8-0.4,0.8-0.8S23.8,34.4,23.4,34.4z"/>
	<path d="M38.6,34.4h-12c-0.4,0-0.8,0.4-0.8,0.8s0.4,0.8,0.8,0.8h12c0.4,0,0.8-0.4,0.8-0.8S39,34.4,38.6,34.4z"/>
	<path d="M23.4,31h-12c-0.4,0-0.8,0.4-0.8,0.8s0.4,0.8,0.8,0.8h12c0.4,0,0.8-0.4,0.8-0.8S23.8,31,23.4,31z"/>
	<path d="M38.6,31h-12c-0.4,0-0.8,0.4-0.8,0.8s0.4,0.8,0.8,0.8h12c0.4,0,0.8-0.4,0.8-0.8S39,31,38.6,31z"/>
	<path d="M38.6,27.6H11.4c-0.4,0-0.8,0.4-0.8,0.8c0,0.4,0.4,0.8,0.8,0.8h27.1c0.4,0,0.8-0.4,0.8-0.8C39.4,28,39,27.6,38.6,27.6z"/>
</g>
</svg>
