<?xml version="1.0" encoding="utf-8"?>
<!-- Generator: Adobe Illustrator 24.1.2, SVG Export Plug-In . SVG Version: 6.00 Build 0)  -->
<svg version="1.1" id="Capa_1" xmlns="http://www.w3.org/2000/svg" xmlns:xlink="http://www.w3.org/1999/xlink" x="0px" y="0px"
	 viewBox="0 0 50 50" style="enable-background:new 0 0 50 50;" xml:space="preserve">
<g>
	<g>
		<path d="M38.4,9.6c2.6,0,4.8-2.1,4.8-4.8S41.1,0,38.4,0c-2.6,0-4.8,2.2-4.8,4.8S35.8,9.6,38.4,9.6z M38.4,2.5c1.3,0,2.3,1,2.3,2.3
			s-1,2.3-2.3,2.3s-2.3-1-2.3-2.3S37.2,2.5,38.4,2.5z"/>
		<path d="M10.3,40.4c-2.6,0-4.8,2.1-4.8,4.8c0,2.6,2.1,4.8,4.8,4.8s4.8-2.1,4.8-4.8C15.1,42.6,13,40.4,10.3,40.4z M10.3,47.5
			c-1.3,0-2.3-1-2.3-2.3c0-1.3,1-2.3,2.3-2.3s2.3,1,2.3,2.3C12.6,46.5,11.6,47.5,10.3,47.5z"/>
		<path d="M22.1,21.2c0.2,0.2,0.6,0.4,0.9,0.4s0.6-0.1,0.9-0.4c0.5-0.5,0.5-1.3,0-1.7l-2.6-2.6l2.6-2.6c0.5-0.5,0.5-1.3,0-1.7
			s-1.3-0.5-1.7,0l-2.6,2.6L17,12.6c-0.5-0.5-1.3-0.5-1.7,0s-0.5,1.3,0,1.7l2.6,2.6l-2.6,2.6c-0.5,0.5-0.5,1.3,0,1.7
			c0.2,0.2,0.6,0.4,0.9,0.4c0.3,0,0.6-0.1,0.9-0.4l2.6-2.6L22.1,21.2z"/>
		<path d="M42.7,32.3c-0.5-0.5-1.3-0.5-1.7,0l-2.6,2.6l-2.6-2.6c-0.5-0.5-1.3-0.5-1.7,0c-0.5,0.5-0.5,1.3,0,1.7l2.6,2.6l-2.6,2.6
			c-0.5,0.5-0.5,1.3,0,1.7c0.2,0.2,0.6,0.4,0.9,0.4c0.3,0,0.6-0.1,0.9-0.4l2.6-2.6L41,41c0.2,0.2,0.6,0.4,0.9,0.4s0.6-0.1,0.9-0.4
			c0.5-0.5,0.5-1.3,0-1.7l-2.6-2.6l2.6-2.6C43.2,33.6,43.2,32.8,42.7,32.3z"/>
		<path d="M28.1,38.7c-0.5-0.5-1.3-0.5-1.7,0l-2.6,2.6l-2.6-2.6c-0.5-0.5-1.3-0.5-1.7,0s-0.5,1.3,0,1.7l2.6,2.6l-2.6,2.6
			c-0.5,0.5-0.5,1.3,0,1.7c0.2,0.2,0.6,0.4,0.9,0.4s0.6-0.1,0.9-0.4l2.6-2.6l2.6,2.6c0.2,0.2,0.6,0.4,0.9,0.4c0.3,0,0.6-0.1,0.9-0.4
			c0.5-0.5,0.5-1.3,0-1.7L25.6,43l2.6-2.6C28.6,40,28.6,39.2,28.1,38.7z"/>
		<path d="M20.2,29.4c0.7,0,1.2-0.6,1.2-1.2c0-0.7-0.6-1.2-1.2-1.2c-0.7,0-1.2,0.6-1.2,1.2C18.9,28.9,19.5,29.4,20.2,29.4z"/>
		<path d="M11,33.1c0.2,0.1,0.4,0.2,0.7,0.2c0.4,0,0.8-0.2,1-0.6c0.4-0.6,0.2-1.3-0.3-1.7c-0.6-0.4-1.3-0.2-1.7,0.3
			C10.3,31.9,10.5,32.7,11,33.1z"/>
		<path d="M14.9,27.8c-0.6,0.3-0.9,1-0.6,1.6c0.2,0.5,0.7,0.7,1.1,0.7c0.2,0,0.3,0,0.5-0.1c0.6-0.3,0.9-1,0.6-1.6
			C16.2,27.8,15.5,27.5,14.9,27.8z"/>
		<circle cx="25" cy="28.2" r="1.2"/>
		<path d="M10.3,37.9c0.3,0,0.6-0.1,0.9-0.4c0.2-0.2,0.4-0.5,0.4-0.9c0-0.3-0.1-0.6-0.4-0.9s-0.5-0.4-0.9-0.4
			c-0.3,0-0.6,0.1-0.9,0.4s-0.4,0.5-0.4,0.9c0,0.3,0.1,0.6,0.4,0.9C9.7,37.8,10,37.9,10.3,37.9z"/>
		<path d="M44.1,17.5l-4.8-4.8c-0.5-0.5-1.3-0.5-1.7,0l-4.8,4.8c-0.5,0.5-0.5,1.3,0,1.7s1.3,0.5,1.7,0l2.7-2.7v3.2
			c0,4-3.3,7.2-7.3,7.2c-0.7,0-1.2,0.6-1.2,1.2c0,0.7,0.6,1.2,1.2,1.2c5.4,0,9.7-4.3,9.7-9.7v-3.2l2.7,2.7c0.2,0.2,0.6,0.4,0.9,0.4
			s0.6-0.1,0.9-0.4C44.5,18.7,44.5,18,44.1,17.5z"/>
	</g>
</g>
</svg>
