<?xml version="1.0" encoding="utf-8"?>
<!-- Generator: Adobe Illustrator 24.1.2, SVG Export Plug-In . SVG Version: 6.00 Build 0)  -->
<svg version="1.1" id="Capa_1" xmlns="http://www.w3.org/2000/svg" xmlns:xlink="http://www.w3.org/1999/xlink" x="0px" y="0px"
	 viewBox="0 0 50 50" style="enable-background:new 0 0 50 50;" xml:space="preserve">
<style type="text/css">
	.st0{fill-rule:evenodd;clip-rule:evenodd;fill:#FF7D95;}
	.st1{fill-rule:evenodd;clip-rule:evenodd;fill:#FFFFFF;}
	.st2{fill-rule:evenodd;clip-rule:evenodd;fill:#CBF4FB;}
	.st3{fill-rule:evenodd;clip-rule:evenodd;fill:#D0F2D2;}
	.st4{fill-rule:evenodd;clip-rule:evenodd;fill:#A0E5A5;}
</style>
<g>
	<g>
		<path class="st0" d="M1,11.2h48l0-8.1c0-1.2-1-2.2-2.2-2.2H3.1C1.9,1,1,1.9,1,3.1L1,11.2z"/>
	</g>
	<g>
		<path class="st1" d="M27.9,16v16.5h-7.2H6V16L27.9,16z M3.1,49h43.7c1.2,0,2.2-1,2.2-2.2l0-35.6H1v35.6C1,48.1,1.9,49,3.1,49z
			 M30.3,38.4c1.7,0,3.1,1.4,3.1,3.1c0,1.7-1.4,3.1-3.1,3.1c-1.7,0-3.1-1.4-3.1-3.1C27.2,39.7,28.6,38.4,30.3,38.4z M19.7,38.4
			c1.7,0,3.1,1.4,3.1,3.1c0,1.7-1.4,3.1-3.1,3.1c-1.7,0-3.1-1.4-3.1-3.1C16.6,39.7,18,38.4,19.7,38.4z M9.1,38.4
			c1.7,0,3.1,1.4,3.1,3.1c0,1.7-1.4,3.1-3.1,3.1c-1.7,0-3.1-1.4-3.1-3.1C6,39.7,7.4,38.4,9.1,38.4z M40.9,38.4
			c1.7,0,3.1,1.4,3.1,3.1c0,1.7-1.4,3.1-3.1,3.1c-1.7,0-3.1-1.4-3.1-3.1C37.8,39.7,39.2,38.4,40.9,38.4z"/>
	</g>
	<g>
		<path class="st2" d="M13.4,21l4.9,7.7l3.6-5.7l6,9.5V16H6v16.5L13.4,21z"/>
	</g>
	<g>
		<path class="st3" d="M6,41.4c0,1.7,1.4,3.1,3.1,3.1c1.7,0,3.1-1.4,3.1-3.1c0-1.7-1.4-3.1-3.1-3.1C7.4,38.4,6,39.7,6,41.4z"/>
	</g>
	<g>
		<path class="st4" d="M6,32.5h14.7l-2.4-3.8L13.4,21L6,32.5z"/>
	</g>
	<g>
		<path class="st4" d="M20.7,32.5h7.2l-6-9.5l-3.6,5.7L20.7,32.5z"/>
	</g>
	<g>
		<path class="st3" d="M16.6,41.4c0,1.7,1.4,3.1,3.1,3.1c1.7,0,3.1-1.4,3.1-3.1c0-1.7-1.4-3.1-3.1-3.1C18,38.4,16.6,39.7,16.6,41.4z
			"/>
	</g>
	<g>
		<path class="st3" d="M27.2,41.4c0,1.7,1.4,3.1,3.1,3.1c1.7,0,3.1-1.4,3.1-3.1c0-1.7-1.4-3.1-3.1-3.1
			C28.6,38.4,27.2,39.7,27.2,41.4z"/>
	</g>
	<g>
		<path class="st3" d="M37.8,41.4c0,1.7,1.4,3.1,3.1,3.1c1.7,0,3.1-1.4,3.1-3.1c0-1.7-1.4-3.1-3.1-3.1
			C39.2,38.4,37.8,39.7,37.8,41.4z"/>
	</g>
	<g>
		<path d="M38.8,6.1c0-0.5-0.4-1-1-1h0c-0.5,0-1,0.4-1,1s0.4,1,1,1C38.4,7.1,38.8,6.6,38.8,6.1z"/>
		<path d="M44.1,6.1c0-0.5-0.4-1-1-1h0c-0.5,0-1,0.4-1,1s0.4,1,1,1S44.1,6.6,44.1,6.1L44.1,6.1z"/>
		<path d="M33.6,6.1c0-0.5-0.4-1-1-1h0c-0.5,0-1,0.4-1,1s0.4,1,1,1C33.1,7.1,33.6,6.6,33.6,6.1L33.6,6.1z"/>
		<path d="M5.9,6.1c0,0.5,0.4,1,1,1h14.7c0.5,0,1-0.4,1-1s-0.4-1-1-1H6.9C6.3,5.1,5.9,5.6,5.9,6.1z"/>
		<path d="M46.9,0H16.3c-0.5,0-1,0.4-1,1s0.4,1,1,1h30.6c0.7,0,1.2,0.5,1.2,1.2v7.2H2V3.1c0-0.6,0.5-1.2,1.2-1.2h4.4
			c0.5,0,1-0.4,1-1s-0.4-1-1-1H3.1C1.4,0,0,1.4,0,3.1v43.8C0,48.6,1.4,50,3.1,50h43.7c1.7,0,3.1-1.4,3.1-3.1V3.1
			C50,1.4,48.6,0,46.9,0z M46.9,48.1H3.1c-0.6,0-1.2-0.5-1.2-1.2V12.2H48v34.7C48,47.5,47.5,48.1,46.9,48.1z"/>
		<path d="M9.1,37.4c-2.2,0-4.1,1.8-4.1,4.1c0,2.2,1.8,4.1,4.1,4.1c2.2,0,4.1-1.8,4.1-4.1C13.2,39.2,11.4,37.4,9.1,37.4z M9.1,43.6
			C8,43.6,7,42.6,7,41.4c0-1.2,0.9-2.1,2.1-2.1c1.2,0,2.1,0.9,2.1,2.1C11.2,42.6,10.3,43.6,9.1,43.6z"/>
		<path d="M19.7,37.4c-2.2,0-4.1,1.8-4.1,4.1c0,2.2,1.8,4.1,4.1,4.1s4.1-1.8,4.1-4.1C23.8,39.2,22,37.4,19.7,37.4z M19.7,43.6
			c-1.2,0-2.1-0.9-2.1-2.1c0-1.2,0.9-2.1,2.1-2.1s2.1,0.9,2.1,2.1C21.8,42.6,20.9,43.6,19.7,43.6z"/>
		<path d="M30.3,37.4c-2.2,0-4.1,1.8-4.1,4.1c0,2.2,1.8,4.1,4.1,4.1c2.2,0,4.1-1.8,4.1-4.1C34.4,39.2,32.5,37.4,30.3,37.4z
			 M30.3,43.6c-1.2,0-2.1-0.9-2.1-2.1c0-1.2,0.9-2.1,2.1-2.1c1.2,0,2.1,0.9,2.1,2.1C32.4,42.6,31.5,43.6,30.3,43.6z"/>
		<path d="M40.9,37.4c-2.2,0-4.1,1.8-4.1,4.1c0,2.2,1.8,4.1,4.1,4.1c2.2,0,4.1-1.8,4.1-4.1C44.9,39.2,43.1,37.4,40.9,37.4z
			 M40.9,43.6c-1.2,0-2.1-0.9-2.1-2.1c0-1.2,0.9-2.1,2.1-2.1c1.2,0,2.1,0.9,2.1,2.1C43,42.6,42,43.6,40.9,43.6z"/>
		<path d="M5.1,32.6c0,0.5,0.5,0.9,1,0.9h21.9c0.5,0,1-0.4,1-1V16c0-0.5-0.4-1-1-1H6c-0.5,0-1,0.4-1,1L5.1,32.6
			C5.1,32.6,5.1,32.6,5.1,32.6L5.1,32.6z M21.3,31.6l-1.8-2.9l2.4-3.8l4.3,6.7H21.3z M19,31.6H7.8l5.6-8.8L19,31.6z M26.9,17v12.2
			l-4.2-6.7c-0.2-0.3-0.5-0.5-0.8-0.5c-0.3,0-0.6,0.2-0.8,0.5l-2.8,4.4l-4.1-6.4C14,20.2,13.7,20,13.4,20c0,0,0,0,0,0
			c-0.3,0-0.6,0.2-0.8,0.5L7,29.2V17L26.9,17z"/>
		<path d="M33,17h10.9c0.5,0,1-0.4,1-1s-0.4-1-1-1H33c-0.5,0-1,0.4-1,1S32.5,17,33,17z"/>
		<path d="M33,22.4h10.9c0.5,0,1-0.4,1-1s-0.4-1-1-1H33c-0.5,0-1,0.4-1,1S32.5,22.4,33,22.4z"/>
		<path d="M33,27.8h10.9c0.5,0,1-0.4,1-1s-0.4-1-1-1H33c-0.5,0-1,0.4-1,1S32.5,27.8,33,27.8z"/>
		<path d="M33,33.2h10.9c0.5,0,1-0.4,1-1c0-0.5-0.4-1-1-1H33c-0.5,0-1,0.4-1,1C32,32.8,32.5,33.2,33,33.2z"/>
		<path d="M11.9,1.9L11.9,1.9c0.5,0,1-0.4,1-1s-0.4-1-1-1s-1,0.4-1,1S11.4,1.9,11.9,1.9z"/>
	</g>
</g>
</svg>
