<?xml version="1.0" encoding="utf-8"?>
<!-- Generator: Adobe Illustrator 24.1.2, SVG Export Plug-In . SVG Version: 6.00 Build 0)  -->
<svg version="1.1" id="Capa_1" xmlns="http://www.w3.org/2000/svg" xmlns:xlink="http://www.w3.org/1999/xlink" x="0px" y="0px"
	 viewBox="0 0 50 50" style="enable-background:new 0 0 50 50;" xml:space="preserve">
<style type="text/css">
	.st0{fill-rule:evenodd;clip-rule:evenodd;fill:#A7EED4;}
	.st1{fill-rule:evenodd;clip-rule:evenodd;fill:#F7EC91;}
	.st2{fill-rule:evenodd;clip-rule:evenodd;fill:#D0DBEF;}
	.st3{fill-rule:evenodd;clip-rule:evenodd;fill:#ED9B88;}
	.st4{fill-rule:evenodd;clip-rule:evenodd;fill:#71E4BF;}
	.st5{fill-rule:evenodd;clip-rule:evenodd;fill:#EDD52E;}
	.st6{fill-rule:evenodd;clip-rule:evenodd;fill:#E76C4C;}
	.st7{fill:#FFFFFF;}
</style>
<g>
	<g>
		<g>
			<path class="st0" d="M38.6,49.3V6.6h-5.9V0.7l-29.8,0v36.4v6.4v2.1v3.7L38.6,49.3z M26.4,39.9v-3.7h7.3v3.7H26.4z"/>
			<path class="st1" d="M26.4,36.2h7.3v3.7h-7.3V36.2z"/>
			<g>
				<path class="st2" d="M38.6,6.6l-5.9-5.9v5.9H38.6z"/>
				<path class="st2" d="M42.7,6h2.9V9h-2.9V6z"/>
				<path class="st2" d="M45.7,41v-2.9h-2.9V41l1.5,2.9L45.7,41z"/>
			</g>
			<path class="st3" d="M46.4,38.1l0.7-27.5L45.7,9h-2.9l-1.4,1.6L42,38.1h0.7h2.9H46.4z"/>
			<path class="st4" d="M5.8,0.7H2.9v48.5h2.9C5.8,33.1,5.8,16.9,5.8,0.7z"/>
			<path class="st5" d="M26.4,36.2h2.9v3.7h-2.9V36.2z"/>
			<path class="st6" d="M45.7,9L45.7,9l-2.9,0l-1.4,1.6L42,38.1h0.7h2.9H45l-0.7-27.5L45.7,9z"/>
		</g>
		<g>
			<path class="st7" d="M6.5,8.1H5.1V2.9H8v1.5H6.5V8.1z M13.9,4.4h-1.5V2.9h1.5V4.4z M10.9,4.4H9.5V2.9h1.5V4.4z"/>
		</g>
		<g>
			<path class="st7" d="M36.4,47.1h-5.1v-1.5H35v-1.5h1.5V47.1z M29.8,47.1h-1.5v-1.5h1.5V47.1z"/>
		</g>
		<g>
			<path class="st7" d="M44.9,21.2h-1.5v-1.5h1.5V21.2z M44.9,18.3h-1.5v-6.4h1.5V18.3z"/>
		</g>
	</g>
	<g>
		<path d="M2.1,0v42h1.5V1.5H32v5.9h5.9v41.2H3.6v-5.1H2.1V50h37.2V6.3L33,0L2.1,0z M33.5,2.5l3.4,3.4h-3.4V2.5z"/>
		<path d="M47.9,10.3l-1.5-1.6V5.3H42v3.4l-1.5,1.6l0.8,28.5H42v2.4l2.2,4.4l2.2-4.4v-2.4h0.7L47.9,10.3z M42.7,37.3l-0.3-10.5h3.5
			l-0.3,10.5H42.7z M42.4,25.4L42,10.9l1-1.2h2.3l1,1.2L46,25.4H42.4z M43.5,6.8h1.5v1.5h-1.5V6.8z M44.9,40.8l-0.7,1.5l-0.7-1.5v-2
			h1.5V40.8z"/>
		<path d="M10,31.7h10.4v1.5H10V31.7z"/>
		<path d="M7.1,31.7h1.5v1.5H7.1V31.7z"/>
		<path d="M25.6,24.3h8.9v1.5h-8.9V24.3z"/>
		<path d="M7.1,24.3h17.1v1.5H7.1V24.3z"/>
		<path d="M13.9,28h20.5v1.5H13.9L13.9,28z"/>
		<path d="M7.1,28h5.4v1.5H7.1V28z"/>
		<path d="M7.1,20.5h5.4V22H7.1V20.5z"/>
		<path d="M13.9,20.5h20.5V22H13.9L13.9,20.5z"/>
		<path d="M7.1,13.1h17.1v1.5H7.1V13.1z"/>
		<path d="M25.6,13.1h8.9v1.5h-8.9V13.1z"/>
		<path d="M7.1,18.3h5.4h1.5h10.2h1.5h8.9v-1.5h-8.9h-1.5H13.9h-1.5H7.1L7.1,18.3z"/>
		<path d="M10,35.5h10.4v1.5H10V35.5z"/>
		<path d="M7.1,35.5h1.5v1.5H7.1V35.5z"/>
		<path d="M26.9,9.3h7.5v1.5h-7.5V9.3z"/>
		<path d="M21.1,9.3h1.5v1.5h-1.5V9.3z"/>
		<path d="M24,9.3h1.5v1.5H24V9.3z"/>
		<path d="M34.4,40.6v-5.1h-8.8v5.1H34.4z M27.1,36.9H33v2.2h-5.9V36.9z"/>
	</g>
</g>
</svg>
