<?xml version="1.0" encoding="utf-8"?>
<!-- Generator: Adobe Illustrator 24.1.2, SVG Export Plug-In . SVG Version: 6.00 Build 0)  -->
<svg version="1.1" id="Capa_1" xmlns="http://www.w3.org/2000/svg" xmlns:xlink="http://www.w3.org/1999/xlink" x="0px" y="0px"
	 viewBox="0 0 50 50" style="enable-background:new 0 0 50 50;" xml:space="preserve">
<g>
	<g>
		<g>
			<path d="M23.4,50L23.4,50v-6.6c-0.9,0.4-1.8,0.6-2.7,0.6c-0.9,0-1.8-0.2-2.6-0.5c-0.8-0.3-1.5-0.8-2.1-1.4
				c-1.2-1.3-1.9-2.9-1.9-4.7c0-1.7,0.7-3.3,1.9-4.5c1.2-1.2,2.8-1.9,4.5-1.9c0,0,0.1,0,0.1,0c0.9,0,1.9,0.2,2.7,0.6l0-6.5h-7.8
				c0.2-0.3,0.5-0.7,0.8-1.2c0.6-0.9,1.1-2,1.1-3.1c0-2.7-2.2-4.9-4.9-4.9c0,0,0,0-0.1,0c-2.7,0-5,2.2-5,5c0,1.2,0.5,2.2,1.1,3.1
				c0.3,0.4,0.6,0.9,0.8,1.2H2.1C0.9,25,0,26,0,27.1v20.8C0,49.1,0.9,50,2.1,50L23.4,50L23.4,50z"/>
			<path d="M43.4,26.5c0.4,0.9,0.6,1.8,0.6,2.7c0,1.7-0.7,3.4-1.9,4.6c-1.2,1.2-2.9,1.9-4.6,1.9c0,0-0.1,0-0.1,0
				c-1.7,0-3.3-0.7-4.5-1.9c-1.2-1.2-1.9-2.8-1.9-4.5c0-1,0.2-1.9,0.6-2.8h-5h-0.8H25l0,7.8c-0.3-0.2-0.8-0.5-1.3-0.8
				c-0.9-0.6-1.9-1-3-1c0,0,0,0-0.1,0c-2.7,0-4.9,2.2-4.9,4.9c0,0.9,0.2,1.8,0.6,2.5c0.9,1.5,2.5,2.5,4.3,2.5c1.1,0,2.1-0.5,3-1
				c0.6-0.3,1-0.7,1.3-0.8v0V50h0h0.8h0.8h21.3c1.2,0,2.1-0.9,2.1-2.1V26.5H43.4z"/>
			<path d="M47.9,0H25v9.6c0,0,0.8-0.7,1.1-0.9c0.9-0.7,2-1.1,3.2-1.1c2.8,0,5,2.3,5,5c0,2.7-2.2,4.9-4.9,4.9c0,0,0,0-0.1,0
				c-1.2,0-2.3-0.4-3.2-1.1c-0.3-0.2-1.1-0.9-1.1-0.9V25h1.6h7.8c-0.1,0.1-0.5,0.8-0.8,1.3c-0.6,0.9-1,1.9-1,3.1
				c0,2.7,2.2,4.9,4.9,4.9c0,0,0,0,0.1,0c1.3,0,2.5-0.5,3.3-1.3c1-0.9,1.6-2.2,1.6-3.7c0-1.1-0.4-2.2-1-3c-0.4-0.6-0.7-1-0.8-1.3
				c0,0,0,0,0,0h9.2H50v-0.9v-22C50,0.9,49.1,0,47.9,0z"/>
		</g>
	</g>
</g>
</svg>
