<?xml version="1.0" encoding="utf-8"?>
<!-- Generator: Adobe Illustrator 24.1.2, SVG Export Plug-In . SVG Version: 6.00 Build 0)  -->
<svg version="1.1" id="Слой_1" xmlns="http://www.w3.org/2000/svg" xmlns:xlink="http://www.w3.org/1999/xlink" x="0px" y="0px"
	 viewBox="0 0 50 50" style="enable-background:new 0 0 50 50;" xml:space="preserve">
<style type="text/css">
	.st0{fill:#AAE1F9;}
	.st1{fill:#F9E109;}
	.st2{fill:#57B7EB;}
	.st3{fill:#FCBC04;}
	.st4{fill:#C4F236;}
	.st5{fill:#A1D51C;}
	.st6{fill:#F89C8D;}
	.st7{fill:#F8664F;}
	.st8{fill:#CC5144;}
	.st9{fill:#39519D;}
</style>
<g id="Fill_Outline">
	<path class="st0" d="M3.7,26.2h23v18h-23V26.2z"/>
	<path class="st1" d="M1.2,44.3h27.9l0,0v1.6c0,1.8-1.5,3.3-3.3,3.3H4.5c-1.8,0-3.3-1.5-3.3-3.3V44.3L1.2,44.3z"/>
	<path class="st2" d="M7,32.8v-6.6H3.7v18h23V41H15.2C10.6,41,7,37.3,7,32.8z"/>
	<path class="st3" d="M6.1,46.7c-1.4,0-2.5-1.1-2.5-2.5l0,0H1.2v1.6c0,1.8,1.5,3.3,3.3,3.3h21.3c1.5,0,2.8-1,3.2-2.5H6.1z"/>
	<path class="st4" d="M37.3,27h9.8c0.9,0,1.6,0.7,1.6,1.6v9.8c0,0.9-0.7,1.6-1.6,1.6h-9.8c-0.9,0-1.6-0.7-1.6-1.6v-9.8
		C35.7,27.8,36.4,27,37.3,27z"/>
	<circle class="st2" cx="42.2" cy="33.6" r="2.5"/>
	<path class="st5" d="M38.1,31.1V27h-0.8c-0.9,0-1.6,0.7-1.6,1.6v9.8c0,0.9,0.7,1.6,1.6,1.6h9.8c0.9,0,1.6-0.7,1.6-1.6v-0.8h-4.1
		C41.1,37.7,38.1,34.8,38.1,31.1z"/>
	<circle class="st0" cx="43" cy="32.8" r="0.8"/>
	<path class="st4" d="M1.2,9h9.8v13.1H1.2V9z"/>
	<circle class="st6" cx="20.9" cy="7.4" r="6.6"/>
	<path class="st0" d="M19.3,9.8V4.9l4.9,2.5L19.3,9.8z"/>
	<path class="st7" d="M23.4,11.5c-3.6,0-6.6-2.9-6.6-6.6c0-1.1,0.3-2.3,0.9-3.2c-3.1,1.8-4.2,5.9-2.3,9s5.9,4.2,9,2.3
		c1-0.6,1.8-1.4,2.3-2.3C25.6,11.2,24.5,11.5,23.4,11.5z"/>
	<path class="st0" d="M37.3,1.6h9.8c0.9,0,1.6,0.7,1.6,1.6v9.8c0,0.9-0.7,1.6-1.6,1.6h-9.8c-0.9,0-1.6-0.7-1.6-1.6V3.3
		C35.7,2.4,36.4,1.6,37.3,1.6z"/>
	<path class="st2" d="M38.1,5.7V1.6h-0.8c-0.9,0-1.6,0.7-1.6,1.6v9.8c0,0.9,0.7,1.6,1.6,1.6h9.8c0.9,0,1.6-0.7,1.6-1.6v-0.8h-4.1
		C41.1,12.3,38.1,9.4,38.1,5.7z"/>
	<path class="st5" d="M3.7,14.8V9H1.2v13.1h9.8v-2.5H8.6C5.9,19.7,3.7,17.5,3.7,14.8z"/>
	<path class="st7" d="M14.4,34.6l2.8-1.6l0,0l3.3,5.7c0.5,0.8,0.2,1.8-0.6,2.2c-0.8,0.5-1.8,0.2-2.2-0.6L14.4,34.6L14.4,34.6z"/>
	<path class="st8" d="M19.3,36.5l-2.1-3.6l-2.8,1.6l1.9,3.4l1.4-0.8L19.3,36.5z"/>
	<path class="st4" d="M31.8,30.2l-14,5.2l-4.1-7.1l11.5-9.5L31.8,30.2z"/>
	<path class="st6" d="M10.1,30.4l3.5-2l0,0l4.1,7.1l0,0l-3.5,2c-1.2,0.7-2.7,0.3-3.4-0.9l-1.6-2.8C8.5,32.6,8.9,31.1,10.1,30.4z"/>
	<path class="st8" d="M7.8,34.6l1.4-0.8l0,0l1.6,2.8l0,0l-1.4,0.8c-0.8,0.5-1.8,0.2-2.2-0.6C6.7,36,7,35,7.8,34.6z"/>
	<path class="st5" d="M18.7,33c-0.1,0-0.2,0.1-0.2,0.1L16.9,34l0.9,1.5l14-5.2l-1-1.8L18.7,33z"/>
	<path class="st7" d="M16.4,34.2c-2,1.1-4.5,0.4-5.6-1.5c-0.4-0.7-0.6-1.6-0.5-2.4l-0.2,0.1c-1.2,0.7-1.6,2.2-0.9,3.4c0,0,0,0,0,0
		l1.6,2.8c0.7,1.2,2.2,1.6,3.4,0.9c0,0,0,0,0,0l3.5-2L16.9,34L16.4,34.2z"/>
	<g>
		<path class="st9" d="M29.1,43.4h-1.6v-8c0-0.5-0.4-0.8-0.8-0.8s-0.8,0.4-0.8,0.8v8H4.5V27h6.8c0.5,0,0.8-0.4,0.8-0.8
			s-0.4-0.8-0.8-0.8H3.7c-0.5,0-0.8,0.4-0.8,0.8v17.2H1.2c-0.5,0-0.8,0.4-0.8,0.8v1.6c0,2.3,1.8,4.1,4.1,4.1h21.3
			c2.3,0,4.1-1.8,4.1-4.1v-1.6C29.9,43.8,29.6,43.4,29.1,43.4z M28.3,45.9c0,1.4-1.1,2.5-2.5,2.5h-1.6v-0.8c0-0.5-0.4-0.8-0.8-0.8
			s-0.8,0.4-0.8,0.8v0.8H7.8v-0.8c0-0.5-0.4-0.8-0.8-0.8c-0.5,0-0.8,0.4-0.8,0.8v0.8H4.5c-1.4,0-2.5-1.1-2.5-2.5v-0.8h26.2V45.9z"/>
		<path class="st9" d="M43,5.7h1.6c0.5,0,0.8-0.4,0.8-0.8c0-0.5-0.4-0.8-0.8-0.8H43c-1.4,0-2.5,1.1-2.5,2.5v0.8h-0.8
			c-0.5,0-0.8,0.4-0.8,0.8c0,0.5,0.4,0.8,0.8,0.8h0.8v2.5c0,0.5,0.4,0.8,0.8,0.8c0.5,0,0.8-0.4,0.8-0.8V9H43c0.5,0,0.8-0.4,0.8-0.8
			c0-0.5-0.4-0.8-0.8-0.8h-0.8V6.6C42.2,6.1,42.6,5.7,43,5.7z"/>
		<path class="st9" d="M47.1,0.8h-9.8c-1.4,0-2.5,1.1-2.5,2.5v1.6c0,0.5,0.4,0.8,0.8,0.8c0.5,0,0.8-0.4,0.8-0.8V3.3
			c0-0.5,0.4-0.8,0.8-0.8h9.8c0.5,0,0.8,0.4,0.8,0.8v9.8c0,0.5-0.4,0.8-0.8,0.8h-9.8c-0.5,0-0.8-0.4-0.8-0.8V8.2
			c0-0.5-0.4-0.8-0.8-0.8c-0.5,0-0.8,0.4-0.8,0.8v4.9c0,1.4,1.1,2.5,2.5,2.5h9.8c1.4,0,2.5-1.1,2.5-2.5V3.3
			C49.6,1.9,48.5,0.8,47.1,0.8z"/>
		<path class="st9" d="M38.9,33.6c0,1.8,1.5,3.3,3.3,3.3s3.3-1.5,3.3-3.3c0-1.8-1.5-3.3-3.3-3.3S38.9,31.8,38.9,33.6z M43.9,33.6
			c0,0.9-0.7,1.6-1.6,1.6s-1.6-0.7-1.6-1.6s0.7-1.6,1.6-1.6S43.9,32.7,43.9,33.6z"/>
		<path class="st9" d="M47.1,26.2h-9.8c-1.4,0-2.5,1.1-2.5,2.5v9.8c0,1.4,1.1,2.5,2.5,2.5h9.8c1.4,0,2.5-1.1,2.5-2.5v-1.6
			c0-0.5-0.4-0.8-0.8-0.8c-0.5,0-0.8,0.4-0.8,0.8v1.6c0,0.5-0.4,0.8-0.8,0.8h-9.8c-0.5,0-0.8-0.4-0.8-0.8v-9.8
			c0-0.5,0.4-0.8,0.8-0.8h9.8c0.5,0,0.8,0.4,0.8,0.8v4.9c0,0.5,0.4,0.8,0.8,0.8c0.5,0,0.8-0.4,0.8-0.8v-4.9
			C49.6,27.3,48.5,26.2,47.1,26.2z"/>
		<path class="st9" d="M18.8,10.5c0.1,0.1,0.3,0.1,0.4,0.1c0.1,0,0.3,0,0.4-0.1l4.9-2.5C25,7.9,25.1,7.4,24.9,7
			c-0.1-0.2-0.2-0.3-0.4-0.4l-4.9-2.5c-0.4-0.2-0.9,0-1.1,0.4c-0.1,0.1-0.1,0.2-0.1,0.4v4.9C18.4,10.1,18.6,10.4,18.8,10.5z
			 M20.1,6.2l2.3,1.1l-2.3,1.1V6.2z"/>
		<path class="st9" d="M20.9,14.8c4.1,0,7.4-3.3,7.4-7.4S25,0,20.9,0s-7.4,3.3-7.4,7.4S16.8,14.8,20.9,14.8z M20.9,1.6
			c3.2,0,5.7,2.6,5.7,5.7s-2.6,5.7-5.7,5.7s-5.7-2.6-5.7-5.7S17.7,1.6,20.9,1.6z"/>
		<path class="st9" d="M29.1,18c0.3,0,0.5-0.1,0.7-0.3l2.5-3.3c0.3-0.4,0.2-0.9-0.2-1.1c-0.4-0.3-0.9-0.2-1.1,0.2l-2.5,3.3
			c-0.3,0.4-0.2,0.9,0.2,1.1C28.7,18,28.9,18,29.1,18z"/>
		<path class="st9" d="M30.9,21c0.2,0.2,0.4,0.3,0.7,0.3c0.2,0,0.3-0.1,0.5-0.2l3.3-2.5c0.4-0.3,0.4-0.8,0.2-1.1
			c-0.3-0.4-0.8-0.4-1.1-0.2l-3.3,2.5C30.7,20.1,30.6,20.6,30.9,21L30.9,21z"/>
		<path class="st9" d="M38.9,22.8c-0.1-0.4-0.5-0.7-1-0.7c0,0,0,0,0,0L33.9,23c-0.5,0-0.8,0.4-0.7,0.9s0.4,0.8,0.9,0.7h0.2l4.1-0.8
			C38.7,23.7,39,23.3,38.9,22.8C38.9,22.8,38.9,22.8,38.9,22.8z"/>
		<path class="st9" d="M1.2,23h9.8c0.5,0,0.8-0.4,0.8-0.8V9c0-0.5-0.4-0.8-0.8-0.8H1.2C0.8,8.2,0.4,8.6,0.4,9v13.1
			C0.4,22.6,0.8,23,1.2,23z M2,9.8h8.2v11.5H2V9.8z"/>
		<path class="st9" d="M7.8,11.5H6.1c-0.5,0-0.8,0.4-0.8,0.8c0,0.5,0.4,0.8,0.8,0.8h1.6c0.5,0,0.8-0.4,0.8-0.8
			C8.6,11.8,8.2,11.5,7.8,11.5z"/>
		<path class="st9" d="M7.8,14.8H4.5c-0.5,0-0.8,0.4-0.8,0.8s0.4,0.8,0.8,0.8h3.3c0.5,0,0.8-0.4,0.8-0.8S8.2,14.8,7.8,14.8z"/>
		<path class="st9" d="M7.8,18H4.5c-0.5,0-0.8,0.4-0.8,0.8s0.4,0.8,0.8,0.8h3.3c0.5,0,0.8-0.4,0.8-0.8S8.2,18,7.8,18z"/>
		<path class="st9" d="M28.4,22.7c-0.2-0.4-0.7-0.5-1.1-0.3c-0.4,0.2-0.5,0.7-0.3,1.1l3.6,6.3l-13.1,4.9c0,0,0,0-0.1,0h-0.1
			l-2.1,1.2l-1.4,0.8C13.4,37,13,37,12.5,36.9c-0.4-0.1-0.8-0.4-1-0.8l-1.6-2.8c-0.4-0.8-0.1-1.7,0.6-2.2l2.8-1.6l2,3.5
			c0.1,0.3,0.4,0.4,0.7,0.4c0.5,0,0.8-0.4,0.8-0.8c0-0.1,0-0.3-0.1-0.4l-2.1-3.7L25,20.1l0.3,0.6c0.2,0.4,0.7,0.5,1.1,0.3
			c0.4-0.2,0.5-0.7,0.3-1.1l-0.8-1.4c-0.1-0.2-0.3-0.4-0.6-0.4c-0.2,0-0.5,0-0.7,0.2l-11.5,9.5l-3.5,2c-1.3,0.8-1.9,2.3-1.5,3.7
			l-0.8,0.5c-1.2,0.7-1.6,2.2-0.9,3.4c0.3,0.6,0.9,1,1.5,1.2c0.2,0.1,0.4,0.1,0.6,0.1c0.4,0,0.9-0.1,1.2-0.3l0.8-0.5
			c0.4,0.4,0.9,0.7,1.4,0.9c0.3,0.1,0.6,0.1,0.9,0.1c0.6,0,1.1-0.2,1.6-0.4l0.7-0.4l1.6,2.8c0.7,1.2,2.2,1.6,3.4,0.9
			c1.2-0.7,1.6-2.2,0.9-3.4c0,0,0,0,0,0l-1.5-2.6L32,31c0.2-0.1,0.4-0.3,0.5-0.5c0.1-0.2,0.1-0.5-0.1-0.7L28.4,22.7z M9,36.7
			c-0.2,0.1-0.4,0.1-0.6,0.1c-0.2-0.1-0.4-0.2-0.5-0.4c-0.1-0.2-0.1-0.4-0.1-0.6c0.1-0.2,0.2-0.4,0.4-0.5l0.7-0.4l0.8,1.4L9,36.7z
			 M19.8,39c0.1,0.2,0.1,0.4,0.1,0.6c-0.1,0.2-0.2,0.4-0.4,0.5c-0.4,0.2-0.9,0.1-1.1-0.3L16.7,37l1.4-0.8h0.1L19.8,39z"/>
	</g>
</g>
</svg>
