<?xml version="1.0" encoding="utf-8"?>
<!-- Generator: Adobe Illustrator 24.1.2, SVG Export Plug-In . SVG Version: 6.00 Build 0)  -->
<svg version="1.1" id="Capa_1" xmlns="http://www.w3.org/2000/svg" xmlns:xlink="http://www.w3.org/1999/xlink" x="0px" y="0px"
	 viewBox="0 0 50 50" style="enable-background:new 0 0 50 50;" xml:space="preserve">
<style type="text/css">
	.st0{fill:#41D3BD;}
	.st1{fill:#11222B;}
	.st2{fill:#E07A5F;}
</style>
<g>
	<circle class="st0" cx="6.3" cy="44.1" r="4.1"/>
	<path class="st1" d="M12,44.1c0-1.8-0.8-3.4-2.1-4.4c1.5-2.7,4.1-4.2,6.9-5.8c2-1.2,4.1-2.3,5.8-4c0.5-0.6,1.1-1.1,1.5-1.7
		c2.1-2.9,3.3-6.4,3.5-9.9c0.1-1.1,0-2.6-0.7-4l2.7,1.3l0.7-1.5l-4.9-2.4c-0.2-0.1-0.5-0.1-0.7,0c-0.2,0.1-0.4,0.3-0.5,0.5L22.6,17
		l1.5,0.5l1-3c0.1,0.2,0.1,0.3,0.2,0.4c0.5,0.9,0.6,1.8,0.6,3.3c-0.1,3.2-1.3,6.4-3.2,9c-0.4,0.5-0.9,1-1.4,1.5
		c-1.5,1.5-3.4,2.6-5.4,3.8c-2.9,1.6-5.8,3.3-7.5,6.4c-0.7-0.3-1.4-0.4-2.2-0.4c-3.1,0-5.7,2.6-5.7,5.7s2.6,5.7,5.7,5.7
		S12,47.2,12,44.1z M6.3,40c2.2,0,4.1,1.8,4.1,4.1s-1.8,4.1-4.1,4.1s-4.1-1.8-4.1-4.1S4,40,6.3,40z"/>
	<circle class="st0" cx="29.1" cy="35.9" r="4.1"/>
	<path class="st1" d="M29.1,30.2c-3.1,0-5.7,2.6-5.7,5.7c0,3.1,2.6,5.7,5.7,5.7s5.7-2.6,5.7-5.7C34.8,32.8,32.2,30.2,29.1,30.2z
		 M29.1,40c-2.2,0-4.1-1.8-4.1-4.1s1.8-4.1,4.1-4.1s4.1,1.8,4.1,4.1S31.3,40,29.1,40z"/>
	<circle class="st0" cx="38.8" cy="21.3" r="4.1"/>
	<path class="st1" d="M38.8,27c3.1,0,5.7-2.6,5.7-5.7s-2.6-5.7-5.7-5.7c-3.1,0-5.7,2.6-5.7,5.7S35.7,27,38.8,27z M38.8,17.2
		c2.2,0,4.1,1.8,4.1,4.1s-1.8,4.1-4.1,4.1s-4.1-1.8-4.1-4.1S36.6,17.2,38.8,17.2z"/>
	<circle class="st0" cx="10.3" cy="19.7" r="4.1"/>
	<g>
		<path class="st1" d="M10.3,25.4c3.1,0,5.7-2.6,5.7-5.7S13.5,14,10.3,14s-5.7,2.6-5.7,5.7S7.2,25.4,10.3,25.4z M10.3,15.6
			c2.2,0,4.1,1.8,4.1,4.1s-1.8,4.1-4.1,4.1s-4.1-1.8-4.1-4.1S8.1,15.6,10.3,15.6z"/>
		<path class="st1" d="M18.1,1.2c0.2,0.3,0.5,0.8,0.9,1.3l1.4-0.9c-0.4-0.6-0.7-1-0.9-1.4L18.1,1.2z"/>
		<path class="st1" d="M19.8,3.9c0.3,0.4,0.5,0.9,0.8,1.4L22,4.5c-0.3-0.5-0.6-1-0.8-1.4L19.8,3.9z"/>
		<path class="st1" d="M21.4,6.7c0.3,0.5,0.5,1,0.7,1.4l1.5-0.7c-0.2-0.5-0.5-1-0.8-1.5L21.4,6.7z"/>
		<path class="st1" d="M24.9,10.4c-0.2-0.4-0.4-0.9-0.7-1.6l-1.5,0.7c0.3,0.6,0.5,1.1,0.6,1.4L24.9,10.4z"/>
	</g>
	<g>
		<g transform="matrix(0.7071 -0.7071 0.7071 0.7071 -15.832 53.778)">
			
				<rect x="54.5" y="25.5" transform="matrix(-1 2.535182e-06 -2.535182e-06 -1 110.6135 62.4485)" class="st2" width="1.6" height="11.5"/>
			
				<rect x="49.5" y="30.4" transform="matrix(-1 2.535182e-06 -2.535182e-06 -1 110.6119 62.4501)" class="st2" width="11.5" height="1.6"/>
		</g>
		<g transform="matrix(0.7071 -0.7071 0.7071 0.7071 -2.9 7)">
			
				<rect x="5.9" y="-1.8" transform="matrix(-1 2.535182e-06 -2.535182e-06 -1 13.5043 7.8388)" class="st2" width="1.6" height="11.5"/>
			
				<rect x="1" y="3.1" transform="matrix(-1 2.535182e-06 -2.535182e-06 -1 13.5027 7.8404)" class="st2" width="11.5" height="1.6"/>
		</g>
		<g transform="matrix(0.7071 -0.7071 0.7071 0.7071 7.04 40.991)">
			
				<rect x="46.6" y="-3.5" transform="matrix(-1 2.535182e-06 -2.535182e-06 -1 94.7284 4.4349)" class="st2" width="1.6" height="11.5"/>
			
				<rect x="41.6" y="1.4" transform="matrix(-1 2.535182e-06 -2.535182e-06 -1 94.7267 4.4365)" class="st2" width="11.5" height="1.6"/>
		</g>
	</g>
</g>
</svg>
