<?xml version="1.0" encoding="utf-8"?>
<!-- Generator: Adobe Illustrator 24.1.2, SVG Export Plug-In . SVG Version: 6.00 Build 0)  -->
<svg version="1.1" id="Слой_1" xmlns="http://www.w3.org/2000/svg" xmlns:xlink="http://www.w3.org/1999/xlink" x="0px" y="0px"
	 viewBox="0 0 50 50" style="enable-background:new 0 0 50 50;" xml:space="preserve">
<style type="text/css">
	.st0{fill:#FF656F;}
	.st1{fill:#4F67D2;}
	.st2{fill:#FEE55A;}
	.st3{fill:#231F20;}
</style>
<g id="Layer_2">
	<path class="st0" d="M39,14.7c0-7.8-6.3-14-14-14.1c-7.8,0-14,6.3-14.1,14c0,5.1,2.8,9.8,7.2,12.3c2,7.3,6.8,15,6.8,15
		s4.8-7.7,6.8-15C36.3,24.5,39,19.8,39,14.7L39,14.7z"/>
	<path class="st1" d="M27.7,37.2C26.2,40,25,42,25,42s-1.2-2-2.7-4.8c-8.6,0.4-15.3,3-15.3,6c0,3.4,8,6.1,18,6.1s18-2.7,18-6.1
		C43,40.1,36.3,37.6,27.7,37.2z"/>
	<path class="st2" d="M25,20.6c-3.3,0-5.9-2.7-5.9-5.9s2.7-5.9,5.9-5.9c3.3,0,5.9,2.7,5.9,5.9c0,0,0,0,0,0
		C30.9,18,28.3,20.6,25,20.6L25,20.6z"/>
	<g>
		<path class="st3" d="M25.7,20.6c0-0.4-0.3-0.7-0.7-0.7c0,0,0,0,0,0c-2.9,0-5.3-2.4-5.3-5.3c0-2.9,2.4-5.3,5.3-5.3
			c2.9,0,5.3,2.4,5.3,5.3c0,0,0,0,0,0c0,0.4,0.3,0.7,0.7,0.7c0.4,0,0.7-0.3,0.7-0.7c0-3.7-3-6.6-6.6-6.6s-6.6,3-6.6,6.6
			s3,6.6,6.6,6.6h0C25.4,21.3,25.7,21,25.7,20.6C25.7,20.6,25.7,20.6,25.7,20.6L25.7,20.6z"/>
		<path class="st3" d="M30.1,17.8c-0.3-0.2-0.7-0.2-1,0.1c0,0,0,0,0,0c-0.3,0.4-0.6,0.7-1,1c-0.3,0.2-0.3,0.7-0.1,1
			c0.2,0.3,0.6,0.3,0.9,0.1c0.5-0.4,0.9-0.8,1.3-1.3C30.5,18.4,30.4,18,30.1,17.8C30.1,17.8,30.1,17.8,30.1,17.8L30.1,17.8z"/>
		<path class="st3" d="M28.8,36.5c1.5-2.9,2.7-6,3.6-9.1c7-4.1,9.4-13.1,5.4-20.1S24.6-2.1,17.6,2s-9.4,13.1-5.4,20.1
			c1.3,2.2,3.1,4.1,5.4,5.4c0.9,3.1,2.1,6.2,3.6,9.1c-1.8,0.1-3.5,0.3-5.2,0.7c-0.4,0.1-0.6,0.4-0.5,0.8c0.1,0.4,0.4,0.6,0.8,0.5
			c1.9-0.4,3.7-0.6,5.6-0.7c1.3,2.6,2.4,4.3,2.5,4.5c0.2,0.3,0.6,0.4,0.9,0.2c0.1-0.1,0.2-0.1,0.2-0.2c0.1-0.1,1.2-1.9,2.5-4.5
			c8.8,0.5,14.2,3.1,14.2,5.3c0,2.6-7.1,5.4-17.3,5.4S7.7,45.7,7.7,43.2c0-1.3,1.9-2.7,4.9-3.7c0.4-0.1,0.5-0.5,0.4-0.9
			c-0.1-0.3-0.5-0.5-0.8-0.4c-3.8,1.3-5.9,3-5.9,5C6.3,47.6,16,50,25,50s18.7-2.4,18.7-6.8C43.7,39.3,36.1,37.1,28.8,36.5L28.8,36.5
			z M18.5,26.4c-6.5-3.6-8.8-11.7-5.2-18.2S25-0.6,31.5,3s8.8,11.7,5.2,18.2c-1.2,2.2-3,4-5.2,5.2c-0.2,0.1-0.3,0.2-0.3,0.4
			c-1.5,5.6-4.8,11.6-6.1,13.9c-1.3-2.3-4.6-8.2-6.1-13.9C18.8,26.6,18.7,26.5,18.5,26.4L18.5,26.4z"/>
	</g>
</g>
</svg>
